<?xml version="1.0" encoding="UTF-8"?>
<svg id="Camada_1" xmlns="http://www.w3.org/2000/svg" version="1.1" viewBox="0 0 948.947 327.757">
  <!-- Generator: Adobe Illustrator 29.8.3, SVG Export Plug-In . SVG Version: 2.1.1 Build 3)  -->
  <defs>
    <style>
      .st0 {
        fill: #fff;
      }

      .st1 {
        fill: #faecba;
      }
    </style>
  </defs>
  <path class="st1" d="M-235.959-7.334c.575.294-.496,1.439-1.685.83-.575-.294.496-1.439,1.685-.83Z"/>
  <path class="st0" d="M208.758,92.432c1.409,4.063,5.846,5.937,9.845,4.359.029-.011.058-.023.087-.034,10.933-4.233,21.724-4.793,31.268,1.697,8.211,5.583,23.598,28.049,12.144,31.001-46.934,12.094-33.009-16.991-44.303-8.288-16.179,12.468-13.358,70.411-14.862,90.149-1.019,13.382,2.471,44.988-18.68,43.059-20.703-1.889-17.221-23.146-17.601-37.734-1.134-43.567-.489-87.328-.565-130.98-.001-.688.065-1.391.273-2.048,2.882-9.102,14.702-10.272,22.911-8.593,10.232,2.092,16.441,8.643,19.483,17.413Z"/>
  <path class="st0" d="M824.588,117.76c-.587-6.824-5.609-12.736-11.278-16.138-22.759-13.668-59.935-8.282-83.363,3.118-37.743,18.365-51.633,77.045-38.452,113.553,8.403,23.326,36.548,41.084,61.231,34.949,3.442-.871,6.743-2.086,9.881-3.584,14.174-6.783,30.98-6.884,44.668.81,1.681.952,3.3,2.227,5.366,3.078,1.64.668,6.52,1.175,10.023.83,1.843-.182,3.219-1.701,3.219-3.523.081-17.414.364-113.674-1.296-133.093ZM792.515,176.015l-9.496,5.811c-2.794,1.701-4.576,4.677-4.758,7.958l-.587,11.116c-.445,8.221-10.124,12.372-16.401,7.026l-8.464-7.249c-2.47-2.106-5.852-2.875-9.031-2.045l-10.752,2.875c-7.958,2.106-14.903-5.811-11.744-13.425l4.272-10.286c1.235-3.037.931-6.48-.85-9.233l-6.034-9.335c-4.495-6.925.911-15.976,9.132-15.328l11.076.891c3.28.243,6.459-1.114,8.524-3.665l7.026-8.626c5.204-6.419,15.47-4.09,17.393,3.948l2.592,10.813c.769,3.199,3.037,5.791,6.095,6.986l10.387,3.989c7.694,2.977,8.646,13.465,1.62,17.778Z"/>
  <path class="st0" d="M358.118,212.104c-.911,0-1.762.121-2.592.385-2.045.587-3.766,1.883-4.941,3.604l-.02.02c-1.417,2.551-4.252,4.191-7.411,3.888-3.969-.385-6.844-4.009-6.844-7.998v-78.827c0-.729.02-1.478.02-2.227.02-3.139.771-14.298,3.904-14.327,24.523-.225,28.766-9.37,22.873-20.061-3.017-5.487-15.75-2.408-22.311-3.056-3.159-.304-4.387.535-4.387-2.644,0,0-.059-7.942-.099-16.811-.04-6.905-.061-13.101-.04-13.283.02-.182.04-.385.04-.567v-12.453c-.02-.041-.04-.081-.101-.081h.101c0-6.722-7.958-12.169-17.758-12.169s-17.778,5.447-17.778,12.169h.101c-.061,0-.081.04-.101.081v38.067c.121,3.26-.004,2.349-.024,5.103,0,.547.514,2.122-1.856,2.475-10.968,1.631-24.129-2.531-25.817,5.006-1.242,5.546,1.125,18.786,27.448,17.774l.088,9.006.162,22.901v69.735h.041c-.02.486-.041.972-.041,1.478,0,19.438,15.753,35.192,35.192,35.192.709,0,1.438-.02,2.126-.061,4.232-.263,8.261-1.255,11.947-2.855,3.705-1.62,7.067-3.847,9.962-6.581,1.883-1.984,3.523-4.313,4.86-6.945,2.248-4.434,2.308-15.976,2.308-16.887,0-5.001-4.05-9.051-9.051-9.051ZM303.306,53.964c0-.02,0-.041-.02-.061l.041.041-.02.02Z"/>
  <path class="st0" d="M399.469,104.629c7.856,3.347,17.973,3.844,26.46,3.008,1.314-.129,3.815-1.281,4.849-.491,1.168.892.36,2.707.405,3.968,1.697,48.064,1.079,96.982-1.663,144.981-1.052,18.42-1.493,37.638-5.505,55.745-.716,3.233-2.87,12.375-4.964,14.455-5.675,5.637-9.098-6.588-10.015-10.133-3.833-14.809-4.736-32.038-6.039-47.295-4.238-49.637-5.526-100.862-4.825-150.691.038-2.702-.112-9.816.337-11.971.146-.699.354-1.158.96-1.576Z"/>
  <path class="st0" d="M394.177,29.109c8.599-10.593,19.979-18.817,32.426-24.219,3.551-1.541,13.846-4.89,17.593-4.89,4.066,0,4.784,1.235-2.623,8.9-3.832,3.965-7.368,7.542-10.495,12.826-13.092,22.122,9.406,25.623,11.841,41.519,5.178,33.8-52.162,31.742-60.157,2.494-3.529-12.908,3.403-26.759,11.416-36.63Z"/>
  <path class="st0" d="M430.706,94.583c.223,1.957-.339,5.116-.036,7.255-8.304,2.678-17.934,2.263-26.383.251-1.104-.263-4.424-1.052-5.202-1.483-1.384-.767-.589-5.001-.542-6.546.064-2.151-.984-4.473,2.978-3.773,5.853,1.033,10.009,3.347,16.659,3.544,2.223.066,10.433-.923,11.673-.5.573.195.79.704.852,1.253Z"/>
  <path class="st0" d="M891.512,92.432c1.409,4.063,5.846,5.937,9.845,4.359.029-.011.058-.023.087-.034,10.933-4.233,21.724-4.793,31.268,1.697,8.211,5.583,23.598,28.049,12.144,31.001-46.934,12.094-33.009-16.991-44.303-8.288-16.179,12.468-13.358,70.411-14.862,90.149-1.019,13.382,2.471,44.988-18.68,43.059-20.703-1.889-17.221-23.146-17.601-37.734-1.134-43.567-.489-87.328-.565-130.98-.001-.688.065-1.391.273-2.048,2.882-9.102,14.702-10.272,22.911-8.593,10.232,2.092,16.441,8.643,19.483,17.413Z"/>
  <path class="st0" d="M662.391,212.021c-.911,0-1.762.121-2.592.385-2.045.587-3.766,1.883-4.941,3.604l-.02.02c-1.417,2.551-4.252,4.191-7.411,3.888-3.969-.385-6.844-4.009-6.844-7.998v-78.827c0-.729.02-1.478.02-2.227.02-3.138.769-14.295,3.908-14.316,24.521-.223,28.753-9.375,22.86-20.066-3.017-5.487-15.753-2.41-22.314-3.058-3.159-.304-4.374.547-4.374-2.632,0,0-.061-7.958-.101-16.826-.04-6.905-.061-13.101-.04-13.283.02-.182.04-.385.04-.567v-12.453c-.02-.041-.04-.081-.101-.081h.101c0-6.722-7.958-12.169-17.758-12.169s-17.778,5.447-17.778,12.169h.101c-.061,0-.081.041-.101.081v38.067c.121,3.26,0,2.349-.02,5.103,0,.547.506,2.126-1.863,2.491-10.975,1.62-24.136-2.531-25.817,5.001-1.235,5.548,1.114,18.791,27.437,17.778l.101,8.99.162,22.901v6.398c-.486.547-1.235.81-2.005.628-3.341-.83-6.824-1.336-10.185-1.64-11.339-1.073-20.167-3.138-36.812,1.255-8.929,2.349-12.291,1.903-17.049,2.045-11.481.344-20.451-2.47-20.572-2.491-4.11-1.033-11.38-3.017-18.163-5.953-.182,0-17.515-8.201-17.515-17.191s8.099-15.53,17.09-15.429c8.666.081,14.457,1.012,23.751,4.374l1.154.425c9.01,3.402,21.726,9.841,30.899,4.07,8.241-5.204,8.039-10.489,5.791-15.875-4.131-9.901-23.508-11.602-28.004-12.554-18.406-3.847-42.582-3.462-59.49,3.868-12.513,5.75-20.248,16.806-20.248,31.486,0,18.952,16.057,28.55,32.924,36.224,8.707,3.807,11.582,4.88,12.513,10.732-.445,5.69-15.328,13.85-17.677,24.845-4.434,20.674,9.051,40.719,27.76,48.171,38.209,15.227,86.258-29.603,65.22-68.885-1.195-2.248-6.965-7.35-3.483-9.537,2.875-1.843,15.328-.041,18.953,1.215,5.427,1.863,12.331,7.411,15.146,13.344v30.211h.041c-.02.486-.041.972-.041,1.478,0,19.439,15.753,35.192,35.192,35.192.709,0,1.438-.02,2.126-.061,4.232-.263,8.261-1.255,11.947-2.855,3.705-1.62,7.067-3.847,9.962-6.581,1.883-1.984,3.523-4.313,4.86-6.945,2.248-4.434,2.308-15.976,2.308-16.887,0-5.001-4.05-9.051-9.051-9.051ZM550.255,222.631c-11.947,10.185-33.066,5.548-30.15-12.898,1.255-7.917,13.749-20.734,21.747-21.706,6.945-.83,14.275,2.511,16.381,9.476,2.369,7.856-1.721,19.803-7.978,25.128ZM607.598,53.861l-.02.02c0-.02,0-.041-.02-.061l.041.041Z"/>
  <path class="st0" d="M139.264,249.353c-.007,1.835-1.395,3.357-3.221,3.536-3.512.345-8.387-.173-10.039-.843-2.054-.833-3.671-2.11-5.359-3.06-13.683-7.7-30.499-7.608-44.658-.825-3.144,1.506-6.438,2.724-9.891,3.583-24.669,6.135-52.824-11.625-61.237-34.937-13.176-36.51.72-95.193,38.456-113.551,23.441-11.404,60.614-16.8,83.373-3.127,5.671,3.407,10.681,9.311,11.267,16.144,1.665,19.421,1.377,115.675,1.311,133.081ZM74.987,125.3c-28.112,3.177-57.376,48.699-36.714,71.798,17.311,19.353,43.469-3.756,53.299-21.026,11.41-20.047,14.557-54.291-16.585-50.772Z"/>
</svg>