<?xml version="1.0" encoding="UTF-8"?>
<svg id="Camada_1" xmlns="http://www.w3.org/2000/svg" version="1.1" viewBox="0 0 1927.518 698.095">
  <!-- Generator: Adobe Illustrator 29.8.3, SVG Export Plug-In . SVG Version: 2.1.1 Build 3)  -->
  <defs>
    <style>
      .st0 {
        fill: #fff;
      }
    </style>
  </defs>
  <path class="st0" d="M441.524,542.843c13.19-2.241,32.464-2.282,42.452,8.124,2.524,2.63,5.465,10.796,6.198,11.287,1.684,1.129,8.147.475,11.366,1.123,7.101,1.429,15.031,6.003,19.946,11.278,2.71,2.909,5.87,9.78,8.769,11.215,5.316,2.63,17.551,2.377,24.892,5.083,9.708,3.579,15.352,12.877,20.028,14.942,2.261.999,29.308,1.079,19.991,10.039-3.127,3.008-21.752,4.588-28.173,6.791-5.272,1.809-13.484,7.796-17.755,8.572-3.441.626-5.513-1.021-8.323-.943-9.661.268-6.956,8.95-9.76,15.232-6.004,13.452-31.62,22.98-45.317,24.625-3.612.434-12.097-.956-14.394.594-1.244.84-2.119,5.771-3.433,7.808-17.857,27.675-62.356,21.494-84.557,2.021-15.461,15.987-50.321,25.129-68.136,9.016-5.17-4.676-5.257-10.29-8.091-15.672-9.386,4.771-19.159,5.867-27.988-.705-7.691-5.724-4.45-9.542-6.52-12.829-.996-1.581-19.971-1.413-22.984-11.371-.833-2.753.145-8.202-1.719-9.521-3.152-2.23-32.917,1.429-38.799-7.432,3.441-10.185,22.616-5.923,27.434-10.014,2.983-2.533,4.453-9.95,6.503-13.48,5.234-9.014,15.92-20.494,26.748-21.962,4.757-.645,10.906.978,15.206-1.03,4.354-2.032,5.446-12.455,13.147-16.828,9.733-5.527,18.247-1.344,25.041-3.685,2.287-.788,3.918-6.746,5.823-9.164,9.21-11.69,21.359-5.241,27.975-9.493,3.553-2.283,4.676-11.507,6.769-15.712,16.318-32.77,78.251-30.408,77.66,12.093Z"/>
  <path class="st0" d="M1538.656,542.843c13.19-2.241,32.464-2.282,42.452,8.124,2.524,2.63,5.465,10.796,6.198,11.287,1.684,1.129,8.147.475,11.366,1.123,7.101,1.429,15.031,6.003,19.946,11.278,2.71,2.909,5.87,9.78,8.769,11.215,5.316,2.63,17.551,2.377,24.892,5.083,9.708,3.579,15.352,12.877,20.028,14.942,2.261.999,29.308,1.079,19.991,10.039-3.127,3.008-21.752,4.588-28.173,6.791-5.272,1.809-13.484,7.796-17.755,8.572-3.441.626-5.513-1.021-8.323-.943-9.661.268-6.956,8.95-9.76,15.232-6.004,13.452-31.62,22.98-45.317,24.625-3.612.434-12.097-.956-14.394.594-1.244.84-2.119,5.771-3.433,7.808-17.857,27.675-62.356,21.494-84.557,2.021-15.461,15.987-50.321,25.129-68.136,9.016-5.17-4.676-5.257-10.29-8.091-15.672-9.386,4.771-19.159,5.867-27.988-.705-7.691-5.724-4.45-9.542-6.52-12.829-.996-1.581-19.971-1.413-22.984-11.371-.833-2.753.145-8.202-1.719-9.521-3.152-2.23-32.917,1.429-38.799-7.432,3.441-10.185,22.616-5.923,27.434-10.014,2.983-2.533,4.453-9.95,6.503-13.48,5.234-9.014,15.92-20.494,26.748-21.962,4.757-.645,10.906.978,15.206-1.03,4.354-2.032,5.446-12.455,13.147-16.828,9.733-5.527,18.247-1.344,25.041-3.685,2.287-.788,3.918-6.746,5.823-9.164,9.21-11.69,21.359-5.241,27.975-9.493,3.553-2.283,4.676-11.507,6.769-15.712,16.318-32.77,78.251-30.408,77.66,12.093Z"/>
  <path class="st0" d="M1524.693,435.214c10.507-6.051,21.504-10.275,33.209-13.669,1.644-2.193-2.693-10.087-3.126-13.289-1.858-13.757,3.854-26.474,17.413-31.083,13.444-4.57,21.641.663,33.68,5.577-6.161-13.715,1.546-33.251,17.166-35.912,4.199-.715,15.833.614,17.888-.847.695-.494,4.569-12.374,6.871-15.611,10.255-14.422,29.33-19.4,45.504-11.939,3.159,1.457,8.63,6.692,10.666,6.904,4.111.428,6.846-4.431,13.359-3.539,11.79,1.615,12.981,13.964,20.499,17.018,10.401,4.225,17.474,1.52,22.269,15.237,1.229,3.514,1.774,12.82,2.442,13.794,1.043,1.519,17.197.791,16.962,11.152,1.119.763,6.668-16.232,19.013-14.755,2.994.358,6.762,3.531,9.086,3.463,5.464-.158,11.371-12.306,23.558-6.033,15.786,8.125,16.105,35.182,4.529,47.289,4.675-.295,9.149.087,13.361,2.263,4.534,2.341,7.477,9.249,9.977,10.006,2.909.881,6.653-.157,9.752.24,7.071.906,14.507,1.723,21.397,3.582,20.701,5.585,5.34,9.141-6.422,10.13-11.176.94-23.778-1.136-34.817.154-10.412,1.217-21.198,7.584-32.627,8.588-19.952,1.752-27.925-7.677-47.568,1.148-1.198.538-3.626.385-1.736,2.594.295.345,7.278,3.28,8.397,3.484,7.775,1.42,12.159-.251,20.966,2.762,1.802.616,16.511,6.383,14.336,8.757-15.93,4.673-33.538,2.078-49.195,3.889-7.282.842-14.549,5.092-21.723,7.003-30.101,8.018-61.936,8.608-92.692,4.089,1.243-5.696,8.333-5.474,11.242-9.965-13.684,2.201-27.312,3.089-41.215,2.473,1.707-3.799,6.614-4.751,9.665-7.116,1.048-.812,2.261.03,1.575-2.864h-65.57c-1.149,0-3.055-3.513-.591-4.338l31.184-16.881-74.924-.025c-.103-2.336,3.823-1.784,4.99-2.485,20.934,1.033,44.126,1.669,64.945,0-18.454,1.294-38.471,1.398-56.827,0-2.007.998-5.866.859-6.869-1.249Z"/>
  <path class="st0" d="M6.24,208.933c10.507-6.051,21.504-10.275,33.209-13.669,1.644-2.193-2.693-10.087-3.126-13.289-1.858-13.757,3.854-26.474,17.413-31.083,13.444-4.57,21.641.663,33.68,5.577-6.161-13.715,1.546-33.251,17.166-35.912,4.199-.715,15.833.614,17.888-.847.695-.494,4.569-12.374,6.871-15.611,10.255-14.422,29.33-19.4,45.504-11.939,3.159,1.457,8.63,6.692,10.666,6.904,4.111.428,6.846-4.431,13.359-3.539,11.79,1.615,12.981,13.964,20.499,17.018,10.401,4.225,17.474,1.52,22.269,15.237,1.229,3.514,1.774,12.82,2.442,13.794,1.043,1.519,17.197.791,16.962,11.152,1.119.763,6.668-16.232,19.013-14.755,2.994.358,6.762,3.531,9.086,3.463,5.464-.158,11.371-12.306,23.558-6.033,15.786,8.125,16.105,35.182,4.529,47.289,4.675-.295,9.149.087,13.361,2.263,4.534,2.341,7.477,9.249,9.977,10.006,2.909.881,6.653-.157,9.752.24,7.071.906,14.507,1.723,21.397,3.582,20.701,5.585,5.34,9.141-6.422,10.13-11.176.94-23.778-1.136-34.817.154-10.412,1.217-21.198,7.584-32.627,8.588-19.952,1.752-27.925-7.677-47.568,1.148-1.198.538-3.626.385-1.736,2.594.295.345,7.278,3.28,8.397,3.484,7.775,1.42,12.159-.251,20.966,2.762,1.802.616,16.511,6.383,14.336,8.757-15.93,4.673-33.538,2.078-49.195,3.889-7.282.842-14.549,5.092-21.723,7.003-30.101,8.018-61.936,8.608-92.692,4.089,1.243-5.696,8.333-5.474,11.242-9.965-13.684,2.201-27.312,3.089-41.215,2.473,1.707-3.799,6.614-4.751,9.665-7.116,1.048-.812,2.261.03,1.575-2.864H44.333c-1.149,0-3.055-3.513-.591-4.338l31.184-16.881L.002,212.667c-.103-2.336,3.823-1.784,4.99-2.485,20.934,1.033,44.126,1.669,64.945,0-18.454,1.294-38.471,1.398-56.827,0-2.007.998-5.866.859-6.869-1.249Z"/>
  <path class="st0" d="M1783.533,39.339c2.074,1.541,8.662-16.42,17.558-8.174,1.448,1.342,2.775,6.184,4.884,4.421.266-.223,1.755-4.438,3.258-6.127,14.601-16.412,45.351-27.617,60.252-5.519,9.688,14.366,4.122,32.289,1.471,47.875,18.075-12.183,15.489,8.067,19.945,10.642,2.146,1.24,12.507,1.518,17.514,3.718,28.942,12.72,24.332,58.815-9.317,61.879-62.204,5.663-132.034-5.415-194.838,1.247-20.951.308-37.302.13-51.273-17.522-8.94-11.295-15.998-36.516-3.539-47.282,10.986-9.494,21.654-3.768,32.898,1.05,1.834-1.82-12.557-16.028-2.458-20.587,6.799-3.07,12.303,5.951,13.698,4.351-.792-11.035-7.214-27.523,4.374-34.969,12.029-7.729,18.67,1.378,23.72,11.234,11.357-4.83,7.342-17.792,9.933-27.538,5.365-20.185,30.798-23.988,43.687-8.572,7.436,8.894,6.167,19.314,8.232,29.873Z"/>
  <path class="st0" d="M219.39,331.821c2.074,1.541,8.662-16.42,17.558-8.174,1.448,1.342,2.775,6.184,4.884,4.421.266-.223,1.755-4.438,3.258-6.127,14.601-16.412,45.351-27.617,60.252-5.519,9.688,14.366,4.122,32.289,1.471,47.875,18.075-12.183,15.489,8.067,19.945,10.642,2.146,1.24,12.507,1.518,17.514,3.718,28.942,12.72,24.332,58.815-9.317,61.879-62.204,5.663-132.034-5.415-194.838,1.247-20.951.308-37.302.13-51.273-17.522-8.94-11.295-15.998-36.516-3.539-47.282,10.986-9.494,21.654-3.768,32.898,1.05,1.834-1.82-12.557-16.028-2.458-20.587,6.799-3.07,12.303,5.951,13.698,4.351-.792-11.035-7.214-27.523,4.374-34.969,12.029-7.729,18.67,1.378,23.72,11.234,11.357-4.83,7.342-17.792,9.933-27.538,5.365-20.185,30.798-23.988,43.687-8.572,7.436,8.894,6.167,19.314,8.232,29.873Z"/>
  <path class="st0" d="M1914.932,252.143l-63.051,1.271c-43.879,4.958-88.936,6.707-133.023,6.229-10.185-.108-19.629-3.74-26.854-3.747-8.866,0-25.051,6.653-36.237,7.48-22.508,1.668-49.092-1.493-72.482-1.292-15.647.128-24.378,2.139-40.785-1.561-7.843-1.776-16.508-6.337-24.116-7.11-11.032-1.117-23.652.686-34.946-.027-24.56-1.554-48.238-9.377-73.699-2.482l-39.332-3.76c-.296-1.796,2.159-1.695,3.471-2.112,11.2-3.606,29.598-9.404,40.879-10.346,6.962-.585,15.243,1.043,21.923-.558,5.355-1.278,8.18-7.218,13.084-8.14,5.59-1.049,12.815.296,18.041,2.435-3-10.474.827-14.907,9.996-19.366-13.508-4.144-17.308-19.192-4.924-27.412,7.413-4.924,15.68-1.123,17.497-2.455,1.836-1.345.982-7.736,1.756-10.756,1.46-5.664,7.346-7.621,7.965-9.525.774-2.395-.02-6.095.726-9.263,3.323-14.079,21.203-17.127,33.184-13.642-1.507-40.893,51.729-41.888,74.365-18.788,2.866,2.926,10.736,12.303,3.074,12.539-3.962-.397-3.962.02,0,1.251,11.792,1.763,8.658,9,12.081,11.335,3.464,2.374,10.931,2.166,14.705,6.222,5.698,6.128,1.547,16.763,3.397,19.71.518.834,10.79,3.72,14.099,9.001,4.46,7.13-.404,11.516.807,15.33.646,2.018,5.415,3.612,7.252,5.335,1.702,1.594,2.516,3.949,4.46,5.529,5.55,4.5,7.272.908,12.377,1.251,3.471.229,10.756,2.845,15.283,3.565,2.718.431,6.074-.39,8.395.35,2.677.848,2.65,5.55,4.541,6.7,3.807,2.314,10.689-1.614,17.51,4.964,1.5,1.453,2.395,4.352,3.747,5.624.444.424.908.82,1.392,1.204,7.043,5.59,18.001,7.198,26.578,6.142,8.543-1.056,5.395-4.742,10.063-9.895,12.989-14.335,47.485-11.146,30.654,12.532,9.492-2.267,14.853,7.904,23.046,7.534,11.012-.505,20.107-3.525,32.518-2.509,10.084.834,20.443,6.774,27.647,7.426,10.305.928,17.813-3.498,30.197.982,1.991.72,3.35-.679,2.738,2.805Z"/>
  <path class="st0" d="M1488.512,101.353l-5.317,3.267c-1.574.966-2.566,2.619-2.672,4.471l-.331,6.23c-.251,4.63-5.688,6.944-9.206,3.942l-4.749-4.061c-1.402-1.19-3.294-1.614-5.066-1.151l-6.045,1.614c-4.471,1.19-8.36-3.254-6.587-7.539l2.394-5.767c.701-1.706.529-3.624-.463-5.172l-3.399-5.251c-2.513-3.876.516-8.955,5.132-8.585l6.217.489c1.839.132,3.624-.622,4.775-2.05l3.942-4.854c2.923-3.598,8.69-2.288,9.762,2.222l1.455,6.071c.437,1.799,1.706,3.254,3.426,3.915l5.82,2.249c4.325,1.667,4.868,7.553.913,9.96Z"/>
  <path class="st0" d="M1449.868,146.269l-1.566,4.317c-.464,1.277-.279,2.684.509,3.799l2.663,3.74c1.975,2.782-.096,6.604-3.497,6.486l-4.595-.164c-1.353-.044-2.636.579-3.445,1.657l-2.743,3.698c-2.03,2.733-6.305,1.954-7.247-1.326l-1.262-4.418c-.378-1.304-1.355-2.33-2.635-2.767l-4.363-1.468c-3.222-1.081-3.804-5.394-.975-7.295l3.805-2.565c1.12-.766,1.803-2.018,1.811-3.368l.047-4.601c.036-3.411,3.957-5.298,6.64-3.191l3.618,2.831c1.075.836,2.473,1.093,3.766.686l4.382-1.37c3.255-1.021,6.262,2.121,5.087,5.319Z"/>
  <path class="st0" d="M1582.971,488.837l-1.566,4.317c-.464,1.277-.279,2.684.509,3.799l2.663,3.74c1.975,2.782-.096,6.604-3.497,6.486l-4.595-.164c-1.353-.044-2.636.579-3.445,1.657l-2.743,3.698c-2.03,2.733-6.305,1.954-7.247-1.326l-1.262-4.418c-.378-1.304-1.355-2.33-2.635-2.767l-4.363-1.468c-3.222-1.081-3.804-5.394-.975-7.295l3.805-2.565c1.12-.766,1.803-2.018,1.811-3.368l.047-4.601c.036-3.411,3.957-5.298,6.64-3.191l3.618,2.831c1.075.836,2.473,1.093,3.766.686l4.382-1.37c3.255-1.021,6.262,2.121,5.087,5.319Z"/>
  <path class="st0" d="M370.876,280.695l-5.317,3.267c-1.574.966-2.566,2.619-2.672,4.471l-.331,6.23c-.251,4.63-5.688,6.944-9.206,3.942l-4.749-4.061c-1.402-1.19-3.294-1.614-5.066-1.151l-6.045,1.614c-4.471,1.19-8.36-3.254-6.587-7.539l2.394-5.767c.701-1.706.529-3.624-.463-5.172l-3.399-5.251c-2.513-3.876.516-8.955,5.132-8.585l6.217.489c1.839.132,3.624-.622,4.775-2.05l3.942-4.854c2.923-3.598,8.69-2.288,9.762,2.222l1.455,6.071c.437,1.799,1.706,3.254,3.426,3.915l5.82,2.249c4.325,1.667,4.868,7.553.913,9.96Z"/>
  <path class="st0" d="M252.044,27.649l-2.482,5.726c-.736,1.694-.6,3.617.376,5.195l3.303,5.293c2.45,3.936-.676,8.951-5.28,8.509l-6.219-.603c-1.831-.171-3.624.567-4.81,1.963l-4.026,4.789c-2.979,3.54-8.714,2.13-9.72-2.398l-1.347-6.097c-.404-1.8-1.645-3.272-3.346-3.971l-5.797-2.352c-4.282-1.733-4.714-7.631-.72-9.976l5.373-3.165c1.582-.946,2.612-2.588,2.735-4.418l.444-6.237c.331-4.624,5.806-6.859,9.271-3.779l4.674,4.139c1.389,1.223,3.264,1.687,5.052,1.242l6.057-1.496c4.499-1.116,8.32,3.395,6.461,7.635Z"/>
</svg>