<?xml version="1.0" encoding="UTF-8"?>
<svg id="Camada_1" data-name="Camada 1" xmlns="http://www.w3.org/2000/svg" viewBox="0 0 671.4 682.23">
  <defs>
    <style>
      .cls-1 {
        fill: #d094a1;
      }

      .cls-2 {
        fill: #fcaebb;
      }

      .cls-3 {
        fill: #c9b775;
      }

      .cls-4 {
        fill: #f7f5c9;
      }

      .cls-5 {
        fill: #ae7d87;
      }

      .cls-6 {
        fill: #f8e08e;
      }
    </style>
  </defs>
  <path class="cls-6" d="M631.54,395.03l-79.3,48.72c-23.47,14.4-38.27,39.06-39.84,66.67l-4.93,92.91c-3.75,69.04-84.82,103.56-137.29,58.78l-70.81-60.56c-20.91-17.75-49.12-24.06-75.55-17.16l-90.15,24.06c-66.67,17.75-124.67-48.52-98.23-112.44l35.7-86c10.45-25.45,7.89-54.05-6.9-77.13L13.53,254.58c-37.48-57.8,7.69-133.54,76.54-128.02l92.71,7.3c27.42,1.97,54.05-9.27,71.21-30.57l58.78-72.39c43.59-53.65,129.6-34.12,145.58,33.14l21.7,90.54c6.51,26.83,25.45,48.52,51.09,58.39l86.79,33.53c64.5,24.85,72.59,112.63,13.61,148.53Z"/>
  <g>
    <path class="cls-2" d="M343.84,90.83l243.16,125.23-.5,250.49-1.96-.93c.16-81.83.06-163.56-.31-245.21l-87.75,44.81-1.96-1.2-2.92.67c-79.54-41.86-159.07-83.72-238.59-125.57l-.16-2.3c29.73-15.21,59.84-29.78,89.04-45.99h1.96Z"/>
    <path class="cls-5" d="M342.86,341.31l1.95.94c-.32,82.44-.65,164.89-.97,247.36l-1.96,1.21-242.65-123.28-.3-250.76,2.56-.76,241.18,123.01.19,2.3Z"/>
    <path class="cls-1" d="M494.52,264.01l91.97-46.96v249.5c-80.33,42.61-161.97,82.93-242.71,124.86l-1.9-.6.98-249.5c-.35-.68-.7-1.83-.28-2.05,29.17-15.65,60.53-30.73,90.14-44.71l1.14.77,1.96.88c-.03,16.5.23,32.83.76,48.98l29.46-36.26c1.58-.91,3.27-.43,4.91.08l20.62,7.8v-49.27c.33-.95.98-1.8,1.97-2.55-1.25-1.25-.72-1.6.98-.98Z"/>
    <path class="cls-2" d="M433.85,294.34c.85.28.84.6,0,.98l-91,45.99-243.63-124.26-.83-.34c.35-1.02,14.99-8.66,17.44-9.96,24.48-13.01,49.71-24.98,74.38-37.65l3.71-.29c79.93,41.09,159.84,82.17,239.73,123.24l.19,2.3Z"/>
    <path class="cls-4" d="M252.84,136.81l241.68,127.2c-.36.18-.65.81-.98.98-18.2,12.67-38.55,22.63-59.69,29.35l-243.63-125.24c20.88-10.71,41.73-21.6,62.62-32.29Z"/>
    <path class="cls-3" d="M493.54,264.99v54.79c-3.85-1.01-24.51-10.56-26.41-9.36l-32.79,40.66-.48-55.77v-.98c19.99-9.51,39.98-19.29,59.69-29.35Z"/>
  </g>
</svg>