<?xml version="1.0" encoding="UTF-8"?>
<svg id="Camada_1" xmlns="http://www.w3.org/2000/svg" version="1.1" viewBox="0 0 671.395 682.23">
  <!-- Generator: Adobe Illustrator 29.8.3, SVG Export Plug-In . SVG Version: 2.1.1 Build 3)  -->
  <defs>
    <style>
      .st0 {
        fill: #fcaebb;
      }

      .st1 {
        fill: #8b84d7;
      }

      .st2 {
        fill: #fff;
      }

      .st3 {
        fill: #f8e08e;
      }
    </style>
  </defs>
  <path class="st3" d="M631.538,395.03l-79.297,48.722c-23.474,14.399-38.268,39.056-39.845,66.673l-4.931,92.908c-3.748,69.04-84.82,103.56-137.291,58.782l-70.814-60.558c-20.909-17.754-49.118-24.065-75.55-17.161l-90.146,24.065c-66.673,17.754-124.666-48.524-98.233-112.435l35.703-86.005c10.454-25.446,7.89-54.048-6.905-77.127L13.534,254.583c-37.478-57.797,7.693-133.543,76.536-128.02l92.711,7.298c27.419,1.973,54.048-9.27,71.209-30.575l58.783-72.393c43.593-53.654,129.598-34.125,145.575,33.139l21.698,90.541c6.51,26.827,25.446,48.524,51.09,58.387l86.792,33.534c64.503,24.855,72.59,112.634,13.611,148.535Z"/>
  <g>
    <polygon class="st2" points="440.814 481.719 218.229 511.712 164.835 89.197 366.674 74.945 440.814 481.719"/>
    <path class="st0" d="M230.417,147.514c9.145,12.986,8.553,34.44,6.411,40.479-8.211,16.688-17.926,32.52-29.144,47.496-9.054,11.577-11.67,38.96-11.67,38.96.404,11.912-.007,23.822-1.233,35.729,2.211,22.658,6.412,45.026,12.603,67.104.772-4.904,2.518-7.546,5.238-7.928.069-1.025.262-2.213.543-3.495,2.438-11.147,9.557-20.702,19.351-26.558,11.747-7.023,27.663-16.338,30.13-16.751,1.799-.301,2.694-.369,4.085-.195,4.932.616,9.423,3.206,12.509,7.103.094.119.188.239.28.357,6.768,8.72,7.914,20.596,3.198,30.576-3.794,8.027-9.738,14.718-18.668,17.786-3.669,9.157-5.446,18.885-5.332,29.183l.217,44.904s-4.748,37.503-8.351,38.093c1.993,6.561-3.341,18.419-9.491,21.354-6.597,11.263-14.247,15.136-21.963,24.896l-34.989,123.4-93.713-20.182,46.196-124.035c2.069-50.036-2.52-101.949.085-151.763,2.242-42.873,11.622-87.198,14.498-130.232,1.846-8.954,12.637-14.258,12.775-23.407,5.239-.652,13.367-17.787,17.795-18.981,1.084-6.888,32.673-49.352,48.639-43.894Z"/>
    <path class="st0" d="M401.246,204.457c12.929,5.183,27.154,9.182,37.982,18.368,18.52,37.079,41.242,71.677,62.704,106.939,15.495,50.145,22.387,104.447,37.8,154.383,12.492,40.472,35.469,80.016,51.235,119.383l-98.362,42.234c-7.573-36.981-16.143-73.968-28.618-109.598-18.136-11.125-40.234-18.604-52.063-37.504l2.541-2.505c8.381-.477,16.534-2.976,23.606-7.521l3.511.536,2.458-.851c21.536,20.186-4.115-2.684-8.429-8.42-18.252-24.27-19.634-45.561-20.975-74.923-.871-11.509-3.515-21.948-8.719-32.217-1.914-3.776-22.54-30.287-25.266-32.13-14.887-2.734-29.091-7.112-42.61-13.134-15.31-5.476-27.168-42.74-3.078-39.965,18.842,6.169,38.971,7.404,58.97,8.172,14.551.428,25.229,8.472,32.032,24.133l10.137,11.893-19.505-27.619.073-3.564c-8.651-31.172-13.627-63.797-15.422-96.091Z"/>
    <path class="st1" d="M401.246,204.457c5.56,31.916,10.41,64.077,15.422,96.091-3.051.844-10.611.564-11.237-2.684l-2.609-.697c-12.14-68.635-24.576-140.893-36.429-209.541-1.488-8.515-9.466-9.605-16.758-9.294-57.355,2.445-116.753,7.934-173.521,13.823-6.066.579-8.132,5.711-7.455,11.169l14.911,84.586-1.791,3.497c-.278.339-.289,1.896-1.156,2.951-4.84,5.892-9.601,11.697-14.241,17.753-1.394,1.82-2.011,2.097-2.922,1.577l-17.368-109.476c-.215-22.236,19.01-24.843,36.289-26.682,55.5-5.909,111.738-6.556,167.208-13.103,12.137-1.328,23.743,3.774,28.877,15.114,7.24,41.672,15.526,83.272,22.78,124.916Z"/>
    <path class="st1" d="M441.581,489.172c-9.434,6.449-18.172,9.098-29.658,9.491l-170.829,13.049c3.794-6.478,7.079-14.231,9.491-21.354l2.078-2.53c58.178-4.2,118.358-8.624,175.869-12.892l3.066.181,10.25,11.011-.267,3.043Z"/>
    <path class="st1" d="M212.623,369.355c-1.552,3.485-2.103,7.929-4.46,11.517-.744,1.133.143,2.131-2.651,1.536-3.458-24.197-13.397-49.608-13.1-74.202.134-11.092,2.787-23.229,3.603-33.756l16.608,94.905Z"/>
    <path class="st1" d="M404.805,294.617c4.266.941,8.876,2.606,11.863,5.932,7.998,8.904,14.986,23.006,24.303,33.233,18.418,20.217,43.762,36.358,61.14,57.491,3.303,4.017,8.826,11.475.205,8.051-.505-.201-.961-.52-1.314-.933-23.94-28.067-53.431-47.44-76.52-76.591-5.539-6.994-11.099-20.769-20.34-22.368-17.185-2.973-35.515-1.879-53.948-5.368-13.471-2.55-29.181-13.371-25.949,10.537,2.358,17.444,19.607,24.415,34.296,28.568,4.37,1.236,21.481,4.002,23.222,5.25,1.919,1.376,25.033,30.789,26.644,33.858,17.29,32.938.199,71.112,27.955,104.912,2.974,3.622,17.768,16.46,18.248,18.546.14.607,0,1.067-.272,1.46-.946,1.367-2.868,1.68-4.289.817-3.134-1.904-6.59-7.012-8.468-8.84-5.211-5.071-8.693-8.081-13.049-14.236-7.694-10.871-12.437-22.296-14.236-35.589-2.74-20.248-.702-48.209-11.378-66.325-2.151-3.65-23.021-29.141-25.456-30.301-12.43-5.925-31.191-4.393-45.022-14.887-.504-.382-7.97-7.821-8.304-8.304-1.518-2.197-4.183-10.351-4.688-13.777-.05-.337-.166-.655-.319-.96-3.894-7.773-2.165-19.358,7.475-22.776.576-.204,1.206-.206,1.8-.059,20.654,5.128,41.492,8.068,62.516,8.821"/>
  </g>
</svg>