<?xml version="1.0" encoding="UTF-8"?>
<svg id="Camada_1" xmlns="http://www.w3.org/2000/svg" version="1.1" viewBox="0 0 671.395 682.23">
  <!-- Generator: Adobe Illustrator 29.8.3, SVG Export Plug-In . SVG Version: 2.1.1 Build 3)  -->
  <defs>
    <style>
      .st0 {
        fill: #8b84d7;
      }

      .st1 {
        fill: #fff;
      }

      .st2 {
        fill: #fcd6ac;
      }

      .st3 {
        fill: #464f5d;
      }

      .st4 {
        fill: #bf9bde;
      }

      .st5 {
        fill: #f8e08e;
      }

      .st6 {
        fill: #e6e6e6;
      }
    </style>
  </defs>
  <path class="st5" d="M631.538,395.03l-79.297,48.722c-23.474,14.399-38.268,39.056-39.845,66.673l-4.931,92.908c-3.748,69.04-84.82,103.56-137.291,58.782l-70.814-60.558c-20.909-17.754-49.118-24.065-75.55-17.161l-90.146,24.065c-66.673,17.754-124.666-48.524-98.233-112.435l35.703-86.005c10.454-25.446,7.89-54.048-6.905-77.127L13.534,254.583c-37.478-57.797,7.693-133.543,76.536-128.02l92.711,7.298c27.419,1.973,54.048-9.27,71.209-30.575l58.783-72.393c43.593-53.654,129.598-34.125,145.575,33.139l21.698,90.541c6.51,26.827,25.446,48.524,51.09,58.387l86.792,33.534c64.503,24.855,72.59,112.634,13.611,148.535Z"/>
  <g>
    <path class="st1" d="M458.233,253.187c-41.138,45.742-84.326,90.193-130.178,131.218-.298,2.869-.614,5.811-1.752,8.486-5.47,12.864-11.141,25.816-16.954,38.529-.584,1.277-1.427,2.438-2.308,3.595-.893,1.174-1.905,2.257-2.951,3.314l.954,1.742c-5.918,13.172-11.628,26.533-17.13,40.083-3.301,15.032,14.785,7.876,22.119,4.047l26.404-12.236,2.451,1.184c16.273-10.7,34.754-19.426,53.567-24.491,3.135-4.414,6.324-8.834,10.143-12.688,20.782-20.967,41.725-41.885,62.779-62.579,1.915-1.882,4.038-3.554,6.188-5.211s4.408-3.204,6.685-4.711l30.519,167.995c.45,7.515-6.6,16.605-14.139,17.88-104.278,18.168-208.372,39.14-312.74,55.723-7.583-.735-11.11-5.209-15.133-11.016l-58.017-319.613.602-2.219c113.038-20.4,226.049-40.984,339.031-61.752l-8.121-56.329c.186.524,17.98,99.049,17.98,99.049Z"/>
    <path class="st0" d="M128.168,178.09c3.387-4.263,13.561-5.711,18.38-3.336,10.622-5.361,23.892-7.508,35.74-6.488l2.262.937c1.882,15.934,2.254,36.791-16.474,42.09-7.547,9.712,3.859,15.446,12.63,9.864,18.735-11.923,20.661-33.516,18.236-53.962l1.725-2.265,26.549-4.819c-.041-.808-.036-1.992.539-2.207,1.191-.446,15.059-3.003,16.01-2.906l1.832,1.777c.068-.84.211-2.108.823-2.259,3.89-.96,31.516-6.682,33.05-5.999.845.376,1.49.897,1.866,1.771l2.285,1.055c1.632,12.867,2.64,30.109-9.187,38.444-17.036,4.581-9.678,21.851,5.522,13.268,18.552-10.476,20.5-34.361,18.061-53.673l1.7-2.43,27.57-5.005.777-2.251c3.89-1.234,14.11-3.636,16.582-.901.068-.84.211-2.108.823-2.259,3.89-.96,31.516-6.682,33.05-5.999.845.376,1.49.897,1.866,1.771l2.292,1.071c1.79,12.865,2.774,29.688-8.852,38.23-16.49,4.606-11.233,21.695,4.725,13.628,18.521-9.362,21.524-34.977,18.551-53.636l1.664-2.629c19.544-2.743,34.986,6.874,41.486,25.167l10.572,58.209-342.084,62.091-11.122-61.268c2.917-18.54,11.86-30.395,30.549-35.079Z"/>
    <path class="st4" d="M547.89,293.87c-23.168,23.226-46.385,46.459-69.639,69.599-28.557,28.417-56.696,57.315-85.795,85.189l-2.842.096c-20.846-20.597-41.495-41.323-61.948-62.178l.388-2.172c43.624-43.468,86.537-87.776,130.178-131.218,7.919-7.883,16.285-15.485,24.234-23.385,2.346-1.92,4.505-.64,6.569,1.231l59.46,60.492-.606,2.344Z"/>
    <path class="st0" d="M580.853,260.462l-1.974.963-63.003-62.857.574-2.359c14.06-13.933,29.496-32.356,44.271-44.767,14.94-12.551,27.645-11.139,41.543,1.434,13.611,12.314,36.068,30.737,31,50.605-3.387,13.279-40.88,45.385-52.412,56.982Z"/>
    <path class="st6" d="M580.853,260.462c-11.016,11.079-21.922,22.339-32.962,33.408l-61.008-62.066-4.416-2.001c11.29-11.22,22.678-22.39,33.984-33.593l64.402,64.253Z"/>
    <path class="st6" d="M299.718,146.95c2.962,16.321,1.285,39.391-10.679,51.968-5.692,5.984-20.886,14.337-25.474,3.405-4.61-10.986,6.814-11.381,11.681-15.638,8.69-7.602,7.947-26.159,6.092-36.399l-2.311-1.019c-10.115-43.896-36.655-35.323-31.802,5.342l-1.627,2.164-18.38,3.336c-2.056-17.242-1.048-41.567,13.064-53.887,28.367-24.765,54.741,14.853,59.436,40.727Z"/>
    <path class="st6" d="M398.768,128.97c2.976,16.393,1.817,36.908-9.314,50.236-5.631,6.742-21.866,16.994-26.839,5.138-4.487-10.697,6.748-11.345,11.681-15.638,9.027-7.856,8.001-25.943,6.092-36.399l-2.326-1.101c-10.013-44.193-36.543-34.727-31.763,5.504l-1.651,2.084-17.359,3.151c-7.041-23.454,4.751-66.218,36.02-60.374,20.058,3.749,32.179,29.332,35.459,47.399Z"/>
    <path class="st6" d="M200.669,164.93c3.424,18.867.548,47.185-18.06,57.569-7.998,4.463-19.437,4.705-18.921-6.861.339-7.592,7.906-7.243,11.99-10.439,8.794-6.881,8.399-27.078,6.611-36.932l-2.486-1.926c-11.435-45.173-36.696-31.231-31.775,6.051l-1.479,2.363c-6.002,1.185-12.526,1.869-18.38,3.336-4.557-22.875,3.77-64.439,34.546-60.825,21.411,2.514,34.506,28.666,37.954,47.664Z"/>
    <path class="st4" d="M170.795,309.836l202.944-37.129c12.765-3.358,20.054,12.438,7.418,17.699l-207.335,37.637c-11.592.73-14.544-14.077-3.028-18.207Z"/>
    <path class="st2" d="M392.457,448.658c-17.799,8.177-35.619,16.658-53.567,24.491l-2.8.135c-12.813-12.82-19.323-19.334-32.136-32.155l.136-2.8c7.872-18.014,15.334-36.251,23.964-53.925l64.402,64.253Z"/>
    <path class="st4" d="M210.734,535.688l163.095-29.854c12.68-1.195,15.853,14.56,3.366,18.399l-161.366,29.266c-11.591,1.888-16.113-13.7-5.094-17.811Z"/>
    <path class="st4" d="M172.965,359.096c.653-1.041,2.128-1.934,3.12-2.725l148.346-26.661c7.128,3.365,8.903,10.805,2.671,16.093-48.22,10.647-97.549,17.914-146.169,27.39-7.001-.087-11.897-7.837-7.968-14.098Z"/>
    <path class="st4" d="M183.413,416.656c-5.879-4.48-4.019-13.457,2.505-15.999l98.107-17.772c10.568-.649,13.457,14.61,3.162,17.399-31.578,3.376-65.892,15.005-97.086,17.671-2.261.193-4.785.152-6.688-1.299Z"/>
    <path class="st4" d="M193.371,445.993l68.113-12.527c12.799,2.311,12.907,14.886.187,18.775-13.036,3.986-47.433,10.226-61.042,11.081-12.256.77-17.6-9.909-7.258-17.329Z"/>
    <path class="st3" d="M338.89,473.148c-11.068,4.83-31.287,15.379-41.697,18.047-5.344,1.369-10.902-1.165-12.121-6.805-1.099-5.085,15.803-38.701,19.019-46.061l34.799,34.819Z"/>
    <path class="st4" d="M447.493,501.959c-.575-6.734-4.477-16.16-2.455-22.68,2.347-7.568,14.464-8.263,17.166-.502,1.48,4.253,5.962,29.481,5.249,32.99-.27,1.327-1.623,3.514-2.698,4.38-3.711,2.986-24.236,6.686-29.76,7.064-8.022.549-15.346-3.85-11.733-12.599,3.288-7.96,17.057-6.307,24.233-8.654Z"/>
    <path class="st4" d="M201.527,490.922l48.581-8.816c10.249,2.271,10.702,15.166.342,18.602-6.83,2.266-37.903,8.081-44.627,7.954-9.807-.186-13.5-12.896-4.296-17.74Z"/>
  </g>
</svg>