<?xml version="1.0" encoding="UTF-8"?>
<svg id="Camada_1" xmlns="http://www.w3.org/2000/svg" version="1.1" viewBox="0 0 703.707 676.234">
  <!-- Generator: Adobe Illustrator 29.8.3, SVG Export Plug-In . SVG Version: 2.1.1 Build 3)  -->
  <path d="M693.566,271.176c-8.964-29.605-30.55-26.421-53.668-34.795-39.632-14.272-62.75-54.729-58.622-96.367,2.477-23.708,18.282-38.452-.118-62.514-16.041-20.878-92.591-66.407-118.305-68.883-31.493-3.067-34.324,14.861-53.668,30.431-29.96,23.826-70.181,26.539-103.207,7.431-26.186-14.98-31.021-42.934-67.586-37.508-22.057,3.185-90.822,42.462-106.391,58.976-24.652,26.539-3.775,47.062-2.123,74.781,2.358,40.457-24.652,80.207-63.576,91.766-20.641,6.252-39.986,2.713-52.252,26.067-12.857,24.533-13.329,112.407-4.718,139.064,10.262,31.611,39.16,25.831,62.986,35.74,33.616,13.918,56.027,48.006,55.554,84.453-.472,35.267-29.959,56.734,4.247,87.992,19.461,17.693,78.437,53.786,103.561,58.857,42.109,8.375,45.175-25.949,74.663-43.17,32.908-19.225,74.545-16.395,103.915,8.257,19.108,15.924,23.59,35.385,54.493,32.673,22.175-1.888,92.591-44.586,108.043-61.688,23.708-26.422,4.011-44.586,1.651-71.243-3.775-40.929,19.934-80.796,58.857-94.596,20.406-7.196,38.688-3.303,51.545-25.478,14.98-26.067,13.565-111.11,4.718-140.244ZM485.382,336.993l-18.99,18.872-8.728,8.729c-8.139,8.256-11.795,19.816-9.79,31.257l1.062,5.426,6.016,33.026c5.19,28.662-24.652,50.719-50.483,37.508l-34.914-17.928c-.943-.472-1.887-.944-2.949-1.298-9.082,1.415-18.164,1.533-27.364.59-.826.354-1.533.708-2.241,1.062l-34.56,18.636c-25.595,13.8-55.791-7.785-51.19-36.447l5.308-32.555.943-6.133c1.77-11.442-2.123-22.883-10.379-30.903l-9.319-8.964-19.108-18.165c-20.995-20.051-9.79-55.436,18.872-59.919l15.806-2.477,22.883-3.538c11.441-1.888,21.231-9.082,26.185-19.462l12.739-26.539,4.246-8.846c12.621-26.185,49.776-26.539,62.868-.59l4.482,8.728,13.21,26.186c5.308,10.38,15.098,17.457,26.539,18.99l22.529,3.067,16.277,2.241c28.897,3.892,40.693,39.042,20.051,59.447Z"/>
</svg>