<?xml version="1.0" encoding="UTF-8"?>
<svg id="Camada_1" xmlns="http://www.w3.org/2000/svg" version="1.1" viewBox="0 0 703.707 676.234">
  <!-- Generator: Adobe Illustrator 29.8.3, SVG Export Plug-In . SVG Version: 2.1.1 Build 3)  -->
  <path d="M666.126,670.388c-88.976,1.21-177.865,2.248-266.841,3.199-60.7.605-121.315,1.124-182.015,1.47-54.561.346-114.656,8.733-161.609-24.816C-7.634,605.018.321,532.039.321,464.161V38.911C.321,17.899,18.22,0,39.232,0c25.075,0,37.613,19.455,37.613,38.911,0,.432,0,.951-.087,1.384l1.384-1.384v421.964c0,58.193-14.44,135.063,67.358,136.62,173.282,3.372,347.256-2.508,520.625-4.929,50.151-.692,50.065,77.129,0,77.821Z"/>
  <path d="M120.638,524.447"/>
  <g>
    <g>
      <path d="M576.607,162.542c-2.407-.849-5.097-1.415-7.787-1.415,2.69,0,5.238.424,7.787,1.415Z"/>
      <path d="M530.027,169.055c1.275.283,2.832.283,4.247.142.142,0,.283,0,.425-.142-1.558.142-3.257.142-4.672,0ZM538.098,168.488l.991-.141,17.98-4.814-18.971,4.955ZM568.82,161.127c2.69,0,5.38.566,7.787,1.415-2.548-.991-5.097-1.415-7.787-1.415Z"/>
      <path d="M675.147,110.016l-21.945,13.309c-6.371,3.965-10.477,10.902-11.044,18.406l-1.274,25.626c-.142,2.973-.849,5.804-1.982,8.353-.283.849-.708,1.416-1.275,2.124-.566.991-1.132,1.841-1.841,2.69q0,.142-.141.142c-.567.849-1.275,1.557-2.124,2.265-.991.849-1.982,1.557-2.973,2.266-1.274.849-2.69,1.557-4.106,2.123s-2.973.991-4.389,1.275c-.708.142-1.415.142-1.982.142-2.123.283-4.106.283-6.23-.142-.142,0-.424-.142-.566-.142-1.275-.283-2.548-.567-3.681-1.133-.849-.283-1.841-.708-2.69-1.274-.566-.283-1.274-.709-1.982-1.133l-1.841-1.557-5.663-4.814-13.875-11.893c-2.123-1.84-4.389-3.256-6.937-4.106-2.548-.991-5.097-1.415-7.787-1.415-2.123,0-4.106.283-6.088.849l-5.664,1.557-18.971,4.955-.567.142c-.849.142-1.699.425-2.831.425-1.558.142-3.257.142-4.672,0h-.708c-.142,0-.283,0-.425-.142-.849.142-1.699,0-2.407-.425-.849-.141-1.699-.424-2.548-.849-.849-.283-1.699-.708-2.407-1.132-2.266-1.133-4.389-2.69-6.089-4.672l-.283-.283c-.567-.708-1.133-1.274-1.557-1.982-.991-1.274-1.841-2.831-2.407-4.389-.708-1.415-1.132-3.114-1.415-4.672-.142-.708-.283-1.275-.283-1.982-.142-.425-.142-.849-.142-1.275-.142-3.114.425-6.37,1.841-9.627l9.769-23.644c2.832-7.079,2.124-15.007-1.841-21.237l-14.016-21.662c-10.193-15.857,2.266-36.669,21.095-35.111l25.626,2.124c7.504.566,14.867-2.548,19.538-8.495l16.14-19.821c12.034-14.725,35.82-9.345,40.067,9.202l5.946,24.776c1.841,7.362,6.937,13.45,14.016,16.14l23.927,9.203c17.697,6.937,19.822,31.148,3.681,40.916Z"/>
    </g>
    <path d="M515.303,179.248c2.548,1.416,5.238,2.548,8.069,3.115-2.831-.708-5.521-1.841-8.069-3.115ZM523.373,182.364c3.965.991,8.07,1.415,12.177.849-4.106.424-8.212.142-12.177-.849ZM568.82,161.127c2.69,0,5.38.566,7.787,1.415-2.548-.991-5.097-1.415-7.787-1.415Z"/>
  </g>
  <path d="M587.509,188.735l-74.471,76.594-61.304,63.003c-12.742,14.441-32.987,24.918-52.526,26.334-.991.142-1.982.283-2.973.283-7.221.708-14.724-.283-22.228-2.266-10.335-2.548-20.388-6.937-29.307-10.618l-40.775-16.423c-9.202-3.398-25.767-12.035-35.536-11.751-10.478-.424-21.52,3.539-29.449,11.326-7.221,6.513-16.282,25.202-22.228,34.121l-28.316,47.429-61.87,103.495,61.87-139.314,9.486-21.379,8.92-20.105c8.354-24.351,32.422-45.447,59.889-47.429,15.573-2.407,34.262,4.531,49.128,8.354l42.332,11.468c3.965.849,9.911,2.831,15.857,4.247,6.655,1.557,13.309,2.69,17.697,1.274,2.69-.566,5.238-1.415,7.504-2.69,4.955-2.265,8.92-5.946,12.317-10.901l53.234-69.94,40.066-52.526c.425.283.709.708.991.991,1.841,1.841,3.681,3.398,5.664,4.672,1.274.991,2.548,1.699,3.823,2.265,2.548,1.416,5.238,2.548,8.069,3.115,3.965.991,8.07,1.415,12.177.849h.424c1.699-.142,3.539-.567,5.805-.991l24.635-6.513c2.832-.849,5.804-.142,7.928,1.699l13.167,11.327Z"/>
  <path d="M374.006,374.667v160.19c0,8.388-7.087,15.188-15.829,15.188h-152.726c-9.42,0-17.056-7.327-17.056-16.365v-94.622l40.067-64.392c2.123-3.125,4.531-7.2,7.221-11.548,3.822-6.384,9.627-15.894,13.167-19.154,4.672-4.347,11.326-6.928,18.829-6.928h1.275c4.247,0,15.149,4.483,21.095,6.928,3.398,1.358,6.371,2.581,8.636,3.396l42.333,16.438c9.91,3.939,21.237,8.422,32.987,10.868Z"/>
  <path d="M515.303,179.248c2.548,1.275,5.238,2.407,8.069,3.115-2.831-.567-5.521-1.699-8.069-3.115Z"/>
  <path d="M523.373,182.364c3.965.991,8.07,1.274,12.177.849-4.106.566-8.212.142-12.177-.849Z"/>
  <path d="M530.027,169.055c1.415.142,3.114.142,4.672,0-.142.142-.283.142-.425.142-1.415.141-2.973.141-4.247-.142Z"/>
  <polygon points="538.098 168.488 557.069 163.533 539.089 168.347 538.098 168.488"/>
  <path d="M576.607,162.542c-2.407-.849-5.097-1.415-7.787-1.415,2.69,0,5.238.424,7.787,1.415Z"/>
  <path d="M622.054,215.193v320.549c0,7.9-6.639,14.304-14.829,14.304h-191.21c-9.282,0-16.807-7.258-16.807-16.211v-158.59c23.219-1.365,47.287-12.7,62.72-29.497l136.766-135.608c.425.273.849.547,1.133.683,5.664,3.004,11.893,4.643,18.123,4.643,1.415,0,2.69-.137,4.106-.273Z"/>
</svg>