<?xml version="1.0" encoding="UTF-8"?>
<svg id="Camada_1" xmlns="http://www.w3.org/2000/svg" version="1.1" viewBox="0 0 510.866 307.295">
  <!-- Generator: Adobe Illustrator 29.8.3, SVG Export Plug-In . SVG Version: 2.1.1 Build 3)  -->
  <defs>
    <style>
      .st0 {
        fill: #fff;
      }
    </style>
  </defs>
  <path d="M510.706,19.493c-1.585-10.143-8.875-18.701-19.414-19.493H19.414C8.796.951,3.645,7.924,0,16.957v273.38c3.645,9.034,8.796,16.007,19.414,16.958h471.878c8.954-.634,15.769-7.053,18.463-15.452,2.218-90.572.317-181.62.951-272.35ZM462.528,226.708c-4.041,1.188-7.449.475-11.49,1.426-7.686,1.902-16.403,9.43-18.939,17.037-3.883,11.648.713,22.98-16.799,25.04l-317.121.159c-25.833-1.902-12.124-20.84-25.357-34.47-2.615-2.694-8.241-6.101-11.728-7.211-8.875-2.853-19.493,0-22.821-12.124l-.475-122.268c.396-7.845,5.388-12.678,12.758-14.263,9.43-1.981,14.422-.555,22.267-8.637,11.807-12.124,1.585-31.3,21.633-34.232l317.993-.238c25.912,1.902,12.203,20.92,25.357,34.47,2.615,2.694,8.241,6.102,11.727,7.211,8.954,2.853,19.493,0,22.821,12.124l.475,122.348c-.079,6.498-4.121,11.728-10.301,13.63Z"/>
  <path class="st0" d="M443.035,110.699c0-.634,0-1.189-.237-1.743.079.396.079.792.079,1.268l-.079,59.906.237-59.431ZM441.846,200.083c-14.422,4.12-26.783,14.025-33.836,26.942,7.132-12.758,19.414-22.504,33.757-26.545l.872-1.109v-.396l-.792,1.109ZM403.097,67.355h-.159c.793,3.407,1.981,6.656,3.487,9.826-1.426-3.17-2.536-6.498-3.328-9.826ZM255.393,240.416l147.229.317c0-.159.079-.238.079-.397l-147.309.079ZM108.005,66.562c0,.159-.079.238-.079.396h147.625l-147.546-.396ZM104.756,231.304c1.347,2.853,2.456,5.784,3.328,8.796h.079c-.872-3.011-2.06-5.943-3.407-8.796ZM68.86,106.816l-.793,1.109v.237l.713-.951c14.422-4.121,26.783-14.026,33.836-26.942-7.132,12.758-19.414,22.504-33.757,26.545ZM67.83,198.419s.079,0,.079.079v-30.27l-.079,30.191Z"/>
  <path d="M67.83,198.419s.079,0,.079.079v-30.27l-.079,30.191ZM68.86,106.816l-.793,1.109v.237l.713-.951c14.422-4.121,26.783-14.026,33.836-26.942-7.132,12.758-19.414,22.504-33.757,26.545ZM104.756,231.304c1.347,2.853,2.456,5.784,3.328,8.796h.079c-.872-3.011-2.06-5.943-3.407-8.796ZM108.005,66.562c0,.159-.079.238-.079.396h147.625l-147.546-.396ZM255.393,240.416l147.229.317c0-.159.079-.238.079-.397l-147.309.079ZM403.097,67.355h-.159c.793,3.407,1.981,6.656,3.487,9.826-1.426-3.17-2.536-6.498-3.328-9.826ZM441.846,200.083c-14.422,4.12-26.783,14.025-33.836,26.942,7.132-12.758,19.414-22.504,33.757-26.545l.872-1.109v-.396l-.792,1.109ZM443.035,110.699c0-.634,0-1.189-.237-1.743.079.396.079.792.079,1.268l-.079,59.906.237-59.431Z"/>
  <path d="M452.739,108.383v-1.597l-.699-1.897c-.899-1.997-2.097-3.693-3.793-4.991-1.697-1.398-3.693-2.196-8.086-3.893-2.097-.799-5.89-2.296-6.788-2.895-6.289-3.793-11.679-9.284-15.672-15.972-.799-1.298-1.498-2.595-2.296-4.292-1.198-2.596-2.196-5.19-2.695-7.786l-1.797-7.687-310.852-.399-1.897,7.686c-.599,2.695-1.597,5.391-3.095,8.585-.399.698-.699,1.298-1.198,2.196-5.89,10.681-15.972,18.767-27.851,22.161l-3.194.898-4.692,6.289-.199,99.325,4.791,2.895c2.596,1.598,5.49,2.895,8.385,4.192,2.296.999,4.592,1.997,6.789,3.294,6.189,3.893,11.379,9.284,15.373,16.371.898,1.398,1.697,2.895,2.496,4.691,1.198,2.695,2.196,5.091,2.795,7.288l2.097,7.187,154.727.4,155.226-.1,1.797-7.687c.599-2.695,1.697-5.39,3.095-8.385.3-.699.699-1.498,1.298-2.496,5.79-10.681,15.972-18.668,27.751-22.061l3.394-.999,4.692-6.488.2-92.038c0-.599,0-1.298-.1-1.797ZM312.785,154.003l-12.079,11.779c-3.594,3.494-5.19,8.385-4.392,13.377l2.795,16.67c2.196,12.378-10.881,21.662-21.862,15.872l-14.974-7.886c-4.392-2.296-9.683-2.296-13.976,0l-14.974,7.886c-11.18,5.789-24.057-3.594-21.961-15.972l2.895-16.67c.799-4.891-.799-9.882-4.392-13.377l-11.979-11.779c-8.984-8.685-4.093-23.957,8.385-25.655l16.67-2.496c4.891-.698,9.184-3.793,11.38-8.285l7.487-15.173c5.59-11.18,21.462-11.18,27.052.1l7.487,15.074c2.196,4.592,6.489,7.587,11.38,8.285l16.671,2.496c12.378,1.797,17.269,16.97,8.385,25.755Z"/>
</svg>