<?xml version="1.0" encoding="UTF-8"?>
<svg id="Camada_1" xmlns="http://www.w3.org/2000/svg" version="1.1" viewBox="0 0 443.519 428.272">
  <!-- Generator: Adobe Illustrator 29.8.3, SVG Export Plug-In . SVG Version: 2.1.1 Build 3)  -->
  <path d="M423.703,225.991c17.967-17.539,24.323-43.267,16.561-67.162-7.761-23.895-28.05-41.006-52.923-44.612l-55.612-8.067c-11.367-1.65-21.206-8.861-26.339-19.128l-24.873-50.417c-5.561-11.306-13.933-20.411-24.139-26.706-10.144-6.355-22.061-9.9-34.589-9.9-25.117,0-47.667,14.056-58.79,36.606l-24.934,50.417c-5.072,10.267-14.911,17.417-26.339,19.128l-55.55,8.067c-24.873,3.606-45.162,20.717-52.923,44.612-7.761,23.895-1.405,49.623,16.561,67.162l40.273,39.234c8.189,8.006,11.978,19.617,10.022,30.984l-9.533,55.428c-4.217,24.689,5.745,49.256,26.034,64.045,20.35,14.728,46.812,16.683,69.056,5.011l35.323-18.578,11.611-6.111,2.811-1.467c10.267-5.317,22.428-5.317,32.573,0l2.811,1.467,11.611,6.111,35.384,18.578c9.656,5.072,20.106,7.578,30.495,7.578,13.567,0,27.012-4.278,38.562-12.589,20.289-14.789,30.25-39.356,26.034-64.045l-9.533-55.368c-1.894-11.367,1.833-22.978,10.145-31.045l40.211-39.234ZM362.103,243.347c-15.4,15.095-22.489,36.789-18.884,58.056l9.533,55.367c1.833,10.756-1.161,21.084-8.067,28.845-7.333-40.578-30.434-71.44-68.567-91.79l-3.361-1.772c-4.461-2.322-8.739-4.523-12.039-7.639,2.078-2.506,4.583-4.706,7.761-6.906,26.522-18.15,40.639-43.145,42.045-74.251.916-19.923-5.072-39.417-17.356-56.345-25.789-35.445-72.845-48.034-111.835-29.884-32.267,14.972-50.417,40.272-53.778,75.167-3.117,32.084,8.556,59.156,34.773,80.301,1.528,1.283,3.117,2.444,4.706,3.667,3.544,2.689,6.966,5.317,9.778,8.372-2.994,3.056-7.028,5.317-11.917,7.639-36.545,17.172-60.378,46.262-70.951,86.473-3.361-6.539-4.522-14.117-3.239-21.878l9.533-55.428c3.606-21.267-3.422-42.961-18.822-57.995l-40.273-39.295c-9.717-9.472-13.017-22.856-8.8-35.75,4.217-12.956,14.728-21.878,28.234-23.834l55.612-8.067c21.389-3.178,39.845-16.561,49.317-35.873l24.933-50.417c5.989-12.222,17.723-19.556,31.35-19.556s25.3,7.333,31.35,19.556l24.873,50.417c9.595,19.311,27.989,32.756,49.317,35.873l55.673,8.067c13.445,1.956,24.017,10.878,28.234,23.834,4.217,12.894.856,26.278-8.861,35.75l-40.272,39.295Z"/>
</svg>