<?xml version="1.0" encoding="UTF-8"?>
<svg id="Camada_1" xmlns="http://www.w3.org/2000/svg" version="1.1" viewBox="0 0 582.516 634.854">
  <!-- Generator: Adobe Illustrator 29.8.3, SVG Export Plug-In . SVG Version: 2.1.1 Build 3)  -->
  <path d="M518.415,98.093h-18.453c-1.619,0-3.13.432-4.641.972v-61.834c0-20.504-16.619-37.23-37.23-37.23-20.396,0-37.122,16.726-37.122,37.23v61.079c-.648-.108-1.296-.216-2.051-.216h-255.431c-.863,0-1.726.216-2.806.432v-61.295c0-20.504-16.511-37.23-37.122-37.23-20.504,0-37.122,16.726-37.122,37.23v61.618c-1.296-.431-2.59-.755-3.886-.755h-18.453C28.812,98.093,0,126.906,0,162.301v408.452c0,35.396,28.812,64.101,64.1,64.101h454.315c35.396,0,64.101-28.705,64.101-64.101V162.301c0-35.395-28.705-64.209-64.101-64.209ZM441.797,37.23c0-9.065,7.337-16.403,16.295-16.403,9.172,0,16.511,7.338,16.511,16.403v112.014c0,8.956-7.339,16.294-16.511,16.294-8.958,0-16.295-7.338-16.295-16.294V37.23ZM107.265,37.23c0-9.065,7.337-16.403,16.295-16.403,9.064,0,16.295,7.338,16.295,16.403v112.014c0,8.956-7.231,16.294-16.295,16.294-8.958,0-16.295-7.338-16.295-16.294V37.23ZM538.379,549.818c0,21.367-17.481,38.849-39.063,38.849H85.034c-21.475,0-38.955-17.482-38.955-38.849v-277.553c0-6.259,5.072-11.331,11.33-11.331h469.531c6.367,0,11.438,5.072,11.438,11.331v277.553ZM68.739,549.818c0,8.957,7.339,16.187,16.295,16.187h414.281c9.063,0,16.402-7.23,16.402-16.187v-266.222H68.739v266.222ZM229.208,393.344l21.475-3.13c6.258-.863,11.762-4.856,14.568-10.575l9.496-19.424c7.229-14.461,27.626-14.461,34.856,0l9.604,19.424c2.698,5.72,8.094,9.712,14.568,10.575l21.475,3.13c15.863,2.266,22.231,21.798,10.575,33.021l-15.539,15.215c-4.425,4.425-6.476,10.791-5.504,17.159l3.777,21.367c2.698,15.755-13.92,27.842-28.165,20.396l-19.317-10.144c-5.504-2.914-12.193-2.914-17.913,0l-19.317,10.144c-14.137,7.446-30.648-4.641-27.951-20.396l3.67-21.367c1.079-6.367-.972-12.734-5.612-17.159l-15.539-15.215c-11.439-11.223-5.072-30.756,10.791-33.021Z"/>
</svg>