<?xml version="1.0" encoding="UTF-8"?>
<svg id="Camada_1" xmlns="http://www.w3.org/2000/svg" version="1.1" viewBox="0 0 957.631 893.958">
  <!-- Generator: Adobe Illustrator 29.8.3, SVG Export Plug-In . SVG Version: 2.1.1 Build 3)  -->
  <path d="M899.052,436.107c-5.429-4.978-10.86-10.18-16.289-15.158-25.788-24.205-52.709-49.542-76.463-76.237-18.324-16.514-44.112-23.074-68.998-17.192-24.432,5.881-43.434,22.169-52.257,44.792-19.455,49.769,12.217,79.631,40.268,105.872,2.488,2.488,5.203,4.976,7.691,7.466h-258.12c-16.062,0-31.898,7.464-44.793,21.265-15.835,16.967-24.658,40.041-23.3,60.628,2.262,32.576,33.933,70.355,71.261,70.355h250.203c-1.81,1.584-3.394,3.167-5.204,4.751-17.418,16.287-37.1,34.611-41.624,60.401-5.882,32.576,7.691,62.889,35.517,79.404,11.763,7.013,24.884,10.405,38.005,10.405,13.799,0,28.051-3.845,40.946-11.763-2.263,79.404-88.454,134.376-163.785,95.692l-112.207-57.46c-33.029-16.967-72.165-16.289-104.968,1.131l-111.075,59.723c-82.119,44.339-179.17-24.659-164.465-117.183l19.908-124.423c5.882-36.649-6.335-73.522-33.029-99.312l-91.394-87.097c-67.414-64.473-31.672-178.264,60.628-192.515l124.423-19.456c36.648-6.107,68.093-29.182,84.156-62.663l54.746-113.564c40.493-84.381,159.94-85.513,202.017-2.037l56.782,112.434c16.967,33.254,48.864,55.876,85.512,60.854l124.876,16.967c89.358,11.989,128.042,117.636,71.034,183.919Z"/>
  <path d="M785.59,746.195c-17.648,13.194-36.931,10.209-49.205,2.977-12.442-7.466-24.432-23.753-20.361-46.602,2.49-15.158,16.74-28.278,31.672-42.304,8.823-8.145,18.098-16.515,25.337-26.243h0c9.972-12.926.758-31.67-15.567-31.67h-271.963c-19.002,0-38.232-22.849-39.589-40.495-.678-11.763,5.204-26.468,14.705-36.648,6.786-7.239,14.479-11.311,21.718-11.311h277.587c16.896,0,25.924-19.906,14.791-32.615-10.45-11.928-20.721-23.547-24.757-27.786-29.352-30.832-42.755-43.661-32.123-70.808,4.978-12.668,16.062-21.944,30.088-25.11,13.747-3.274,28.336-.232,37.675,7.499.686.568,1.303,1.202,1.898,1.865,22.413,24.982,48.077,49.086,72.859,72.528l20.361,19.228c.904.679,1.81,1.584,2.262,2.263,19.455,18.324,41.626,39.814,59.95,61.532,6.204,7.173,10.366,13.54,13.322,21.032.914,2.317,1.382,4.793,1.382,7.283v9.896c0,2.368-.429,4.727-1.259,6.944-2.574,6.877-5.456,12.396-10.504,18.414-23.302,28.278-52.031,55.198-82.119,82.572l-4.751,4.525c-20.359,19.228-41.399,38.91-59.948,58.817"/>
</svg>